<svg id="visual" viewBox="0 0 900 600" width="900" height="600"
    xmlns="http://www.w3.org/2000/svg"
    xmlns:xlink="http://www.w3.org/1999/xlink" version="1.1">
    <rect x="0" y="0" width="900" height="600" fill="#fff"></rect>
    <path d="M0 435L21.5 437.3C43 439.7 86 444.3 128.8 445C171.7 445.7 214.3 442.3 257.2 441.5C300 440.7 343 442.3 385.8 451.7C428.7 461 471.3 478 514.2 487.3C557 496.7 600 498.3 642.8 491.7C685.7 485 728.3 470 771.2 460.2C814 450.3 857 445.7 878.5 443.3L900 441L900 601L878.5 601C857 601 814 601 771.2 601C728.3 601 685.7 601 642.8 601C600 601 557 601 514.2 601C471.3 601 428.7 601 385.8 601C343 601 300 601 257.2 601C214.3 601 171.7 601 128.8 601C86 601 43 601 21.5 601L0 601Z" fill="#F2DDF4"></path>
    <path d="M0 490L21.5 495.3C43 500.7 86 511.3 128.8 508.3C171.7 505.3 214.3 488.7 257.2 483.5C300 478.3 343 484.7 385.8 484.7C428.7 484.7 471.3 478.3 514.2 476.2C557 474 600 476 642.8 481C685.7 486 728.3 494 771.2 496.2C814 498.3 857 494.7 878.5 492.8L900 491L900 601L878.5 601C857 601 814 601 771.2 601C728.3 601 685.7 601 642.8 601C600 601 557 601 514.2 601C471.3 601 428.7 601 385.8 601C343 601 300 601 257.2 601C214.3 601 171.7 601 128.8 601C86 601 43 601 21.5 601L0 601Z" fill="#F3CDF6"></path>
    <path d="M0 510L21.5 511.3C43 512.7 86 515.3 128.8 518.8C171.7 522.3 214.3 526.7 257.2 527.8C300 529 343 527 385.8 524.7C428.7 522.3 471.3 519.7 514.2 524.3C557 529 600 541 642.8 543.8C685.7 546.7 728.3 540.3 771.2 536.7C814 533 857 532 878.5 531.5L900 531L900 601L878.5 601C857 601 814 601 771.2 601C728.3 601 685.7 601 642.8 601C600 601 557 601 514.2 601C471.3 601 428.7 601 385.8 601C343 601 300 601 257.2 601C214.3 601 171.7 601 128.8 601C86 601 43 601 21.5 601L0 601Z" fill="#C873CF"></path>
</svg>